<svg width="30" height="30" viewBox="0 0 30 30" fill="none" xmlns="http://www.w3.org/2000/svg">
<path fill-rule="evenodd" clip-rule="evenodd" d="M30 15C30 18.9782 28.4196 22.7936 25.6066 25.6066C22.7936 28.4196 18.9782 30 15 30C11.0218 30 7.20644 28.4196 4.3934 25.6066C1.58035 22.7936 0 18.9782 0 15C0 11.0218 1.58035 7.20644 4.3934 4.3934C7.20644 1.58035 11.0218 0 15 0C18.9782 0 22.7936 1.58035 25.6066 4.3934C28.4196 7.20644 30 11.0218 30 15V15ZM10.0388 15.6638C9.95159 15.7509 9.84811 15.8201 9.73422 15.8672C9.62033 15.9144 9.49827 15.9387 9.375 15.9387C9.25173 15.9387 9.12967 15.9144 9.01578 15.8672C8.90189 15.8201 8.79841 15.7509 8.71125 15.6638C8.62408 15.5766 8.55494 15.4731 8.50777 15.3592C8.4606 15.2453 8.43632 15.1233 8.43632 15C8.43632 14.8767 8.4606 14.7547 8.50777 14.6408C8.55494 14.5269 8.62408 14.4234 8.71125 14.3362L14.3362 8.71125C14.4233 8.62394 14.5268 8.55468 14.6407 8.50741C14.7546 8.46015 14.8767 8.43582 15 8.43582C15.1233 8.43582 15.2454 8.46015 15.3593 8.50741C15.4732 8.55468 15.5767 8.62394 15.6638 8.71125L21.2888 14.3362C21.4648 14.5123 21.5637 14.751 21.5637 15C21.5637 15.249 21.4648 15.4877 21.2888 15.6638C21.1127 15.8398 20.874 15.9387 20.625 15.9387C20.376 15.9387 20.1373 15.8398 19.9612 15.6638L15.9375 11.6381V20.625C15.9375 20.8736 15.8387 21.1121 15.6629 21.2879C15.4871 21.4637 15.2486 21.5625 15 21.5625C14.7514 21.5625 14.5129 21.4637 14.3371 21.2879C14.1613 21.1121 14.0625 20.8736 14.0625 20.625V11.6381L10.0388 15.6638V15.6638Z" fill="black"/>
</svg>
